<?xml version="1.0" standalone="no"?>
<!DOCTYPE svg PUBLIC "-//W3C//DTD SVG 20010904//EN"
 "http://www.w3.org/TR/2001/REC-SVG-20010904/DTD/svg10.dtd">
<svg version="1.0" xmlns="http://www.w3.org/2000/svg"
 width="700.000000pt" height="700.000000pt" viewBox="0 0 700.000000 700.000000"
 preserveAspectRatio="xMidYMid meet">
<metadata>
Created by potrace 1.14, written by Peter Selinger 2001-2017
</metadata>
<g transform="translate(0.000000,700.000000) scale(0.100000,-0.100000)"
fill="#000000" stroke="none">
<path d="M3381 6990 c-67 -14 -144 -41 -162 -56 -8 -8 -20 -14 -26 -14 -18 0
-134 -89 -186 -143 -175 -180 -320 -514 -362 -837 -3 -25 -9 -58 -12 -75 -3
-16 -6 -426 -7 -910 l-1 -880 -430 -217 c-236 -119 -433 -217 -437 -217 -5 -1
-8 26 -8 58 0 72 -26 137 -72 179 -59 56 -87 60 -385 59 l-269 -2 -49 -35
c-31 -23 -58 -54 -74 -84 -25 -49 -25 -50 -26 -334 l0 -285 -279 -139 c-154
-77 -302 -157 -331 -178 -107 -79 -191 -199 -237 -335 -23 -69 -23 -78 -23
-465 0 -369 1 -397 19 -430 21 -39 56 -73 101 -98 35 -19 140 -21 225 -4 30 7
69 14 85 16 120 20 350 58 400 67 71 13 135 21 135 17 0 -2 33 -101 74 -220
43 -130 84 -231 99 -252 48 -62 146 -94 229 -73 39 10 111 65 130 100 6 12 53
146 103 297 l92 275 74 12 c41 7 90 15 109 18 19 3 103 17 185 31 83 14 161
27 175 29 14 2 57 9 95 16 39 6 84 13 100 15 17 2 57 9 90 15 33 6 74 13 90
16 17 2 37 6 45 9 8 3 12 2 8 -1 -3 -3 -2 -23 2 -43 5 -20 11 -57 15 -82 3
-25 10 -67 15 -95 5 -27 11 -63 14 -80 3 -16 12 -73 21 -125 9 -52 18 -108 21
-125 2 -16 9 -56 15 -88 5 -32 12 -74 15 -95 3 -31 7 -52 19 -102 2 -8 19
-134 20 -143 0 -4 -133 -142 -296 -305 -162 -163 -304 -310 -314 -327 -15 -23
-20 -48 -20 -107 0 -69 3 -80 30 -119 19 -27 50 -54 83 -71 l54 -28 1128 0
c1002 0 1134 2 1175 16 116 39 170 152 133 278 -10 34 -63 92 -320 350 -243
245 -307 314 -303 330 4 19 16 91 30 176 3 19 10 61 16 93 5 32 12 70 14 85 2
15 13 81 24 147 11 66 23 138 26 160 4 22 8 47 10 55 2 8 7 35 11 60 3 25 7
52 9 60 2 8 6 39 10 67 9 64 -2 62 202 28 81 -14 164 -28 183 -31 19 -2 46 -7
60 -10 14 -4 39 -8 55 -9 17 -2 44 -6 60 -9 17 -3 73 -13 125 -22 52 -8 106
-18 120 -20 26 -5 35 -7 111 -19 25 -4 50 -10 56 -13 5 -4 52 -133 103 -286
100 -302 117 -333 198 -372 83 -39 203 -10 258 62 18 23 55 115 101 253 l73
216 32 -1 c18 -1 51 -4 73 -8 39 -6 136 -23 185 -32 27 -4 120 -20 184 -30 21
-3 48 -8 60 -10 89 -18 227 -34 253 -29 71 13 127 56 158 121 l26 54 -1 365
c-2 410 -6 441 -77 583 -28 56 -60 99 -118 158 l-80 81 -300 150 -300 151 1
268 c0 342 -9 380 -114 441 l-47 28 -265 1 c-293 1 -323 -3 -379 -58 -48 -47
-64 -85 -69 -165 -3 -40 -7 -73 -11 -72 -3 0 -199 98 -436 217 l-430 217 -1
885 c0 487 -3 894 -7 905 -3 11 -9 45 -12 75 -9 78 -63 312 -75 324 -6 6 -10
16 -10 24 0 41 -85 223 -156 333 -116 182 -264 302 -434 353 -65 20 -237 29
-299 16z"/>
</g>
</svg>
